<?xml version="1.0" encoding="UTF-8"?>
<svg xmlns="http://www.w3.org/2000/svg" width="360" height="220" viewBox="0 0 360 220">
  <rect width="360" height="220" fill="#f0fdf4"/>
  <rect x="28" y="28" width="304" height="14" rx="3" fill="#166534"/>
  <rect x="28" y="50" width="240" height="6" rx="2" fill="#86efac"/>
  <rect x="28" y="60" width="200" height="6" rx="2" fill="#bbf7d0"/>
  <rect x="28" y="88" width="72" height="8" rx="2" fill="#15803d"/>
  <rect x="28" y="104" width="304" height="5" rx="1" fill="#d1fae5"/>
  <rect x="28" y="114" width="292" height="5" rx="1" fill="#d1fae5"/>
  <rect x="28" y="124" width="280" height="5" rx="1" fill="#d1fae5"/>
  <rect x="28" y="152" width="64" height="8" rx="2" fill="#15803d"/>
  <rect x="28" y="168" width="304" height="5" rx="1" fill="#ecfdf5"/>
  <rect x="28" y="178" width="260" height="5" rx="1" fill="#ecfdf5"/>
  <rect x="28" y="196" width="88" height="10" rx="4" fill="#22c55e" opacity="0.35"/>
  <rect x="124" y="196" width="88" height="10" rx="4" fill="#22c55e" opacity="0.35"/>
  <text x="180" y="215" text-anchor="middle" font-family="Segoe UI,system-ui,sans-serif" font-size="11" fill="#166534">Easy</text>
</svg>
