<?xml version="1.0" encoding="UTF-8"?>
<svg xmlns="http://www.w3.org/2000/svg" width="360" height="220" viewBox="0 0 360 220">
  <rect width="360" height="220" fill="#fffaf7"/>
  <rect x="0" y="0" width="360" height="52" fill="#e07a5f"/>
  <rect x="24" y="14" width="200" height="10" rx="2" fill="#fff" opacity="0.95"/>
  <rect x="24" y="28" width="280" height="6" rx="2" fill="#fff" opacity="0.75"/>
  <rect x="24" y="68" width="90" height="8" rx="2" fill="#c2410c"/>
  <rect x="24" y="84" width="312" height="5" rx="1" fill="#d6d3d1"/>
  <rect x="24" y="94" width="300" height="5" rx="1" fill="#d6d3d1"/>
  <rect x="24" y="118" width="70" height="8" rx="2" fill="#c2410c"/>
  <rect x="24" y="134" width="312" height="4" rx="1" fill="#e7e5e4"/>
  <rect x="24" y="144" width="280" height="4" rx="1" fill="#e7e5e4"/>
  <rect x="24" y="168" width="60" height="8" rx="2" fill="#c2410c"/>
  <rect x="24" y="184" width="200" height="14" rx="3" fill="#fed7aa" opacity="0.6"/>
  <rect x="230" y="184" width="50" height="14" rx="3" fill="#fed7aa" opacity="0.6"/>
  <rect x="288" y="184" width="48" height="14" rx="3" fill="#fed7aa" opacity="0.6"/>
  <text x="180" y="212" text-anchor="middle" font-family="Segoe UI,system-ui,sans-serif" font-size="11" fill="#9a3412">Milano</text>
</svg>
